<svg width="62" height="25" viewBox="0 0 62 25" fill="none" xmlns="http://www.w3.org/2000/svg">
<rect fill="white"/>
<path d="M19.2068 18.55V9.82273H22.258C22.8659 9.82273 23.3673 9.92784 23.7622 10.1381C24.1571 10.3455 24.4511 10.6253 24.6443 10.9776C24.8375 11.327 24.9341 11.7148 24.9341 12.1409C24.9341 12.5159 24.8673 12.8256 24.7338 13.0699C24.6031 13.3142 24.4298 13.5074 24.2139 13.6494C24.0009 13.7915 23.7693 13.8966 23.5193 13.9648V14.05C23.7864 14.067 24.0548 14.1608 24.3247 14.3313C24.5946 14.5017 24.8205 14.746 25.0023 15.0642C25.1841 15.3824 25.275 15.7716 25.275 16.2318C25.275 16.6693 25.1756 17.0628 24.9767 17.4122C24.7778 17.7616 24.4639 18.0386 24.0349 18.2432C23.606 18.4477 23.0477 18.55 22.3602 18.55H19.2068ZM20.2636 17.6125H22.3602C23.0506 17.6125 23.5406 17.479 23.8304 17.2119C24.123 16.942 24.2693 16.6153 24.2693 16.2318C24.2693 15.9364 24.194 15.6636 24.0435 15.4136C23.8929 15.1608 23.6784 14.9591 23.4 14.8085C23.1216 14.6551 22.792 14.5784 22.4114 14.5784H20.2636V17.6125ZM20.2636 13.658H22.2239C22.542 13.658 22.829 13.5955 23.0847 13.4705C23.3432 13.3455 23.5477 13.1693 23.6983 12.942C23.8517 12.7148 23.9284 12.4477 23.9284 12.1409C23.9284 11.7574 23.7949 11.4321 23.5278 11.1651C23.2608 10.8952 22.8375 10.7602 22.258 10.7602H20.2636V13.658Z" fill="black"/>
<path d="M27.0115 18.55V9.82273H28.0683V17.6125H32.1251V18.55H27.0115Z" fill="black"/>
<path d="M40.7853 14.1864C40.7853 15.1068 40.6191 15.9023 40.2867 16.5727C39.9543 17.2432 39.4984 17.7602 38.9188 18.1239C38.3393 18.4875 37.6773 18.6693 36.933 18.6693C36.1887 18.6693 35.5268 18.4875 34.9472 18.1239C34.3677 17.7602 33.9117 17.2432 33.5793 16.5727C33.2469 15.9023 33.0808 15.1068 33.0808 14.1864C33.0808 13.2659 33.2469 12.4705 33.5793 11.8C33.9117 11.1295 34.3677 10.6125 34.9472 10.2489C35.5268 9.88523 36.1887 9.70341 36.933 9.70341C37.6773 9.70341 38.3393 9.88523 38.9188 10.2489C39.4984 10.6125 39.9543 11.1295 40.2867 11.8C40.6191 12.4705 40.7853 13.2659 40.7853 14.1864ZM39.7626 14.1864C39.7626 13.4307 39.6361 12.7929 39.3833 12.273C39.1333 11.7531 38.7938 11.3597 38.3648 11.0926C37.9387 10.8256 37.4614 10.692 36.933 10.692C36.4046 10.692 35.9259 10.8256 35.4969 11.0926C35.0708 11.3597 34.7313 11.7531 34.4785 12.273C34.2285 12.7929 34.1035 13.4307 34.1035 14.1864C34.1035 14.942 34.2285 15.5798 34.4785 16.0997C34.7313 16.6196 35.0708 17.0131 35.4969 17.2801C35.9259 17.5472 36.4046 17.6807 36.933 17.6807C37.4614 17.6807 37.9387 17.5472 38.3648 17.2801C38.7938 17.0131 39.1333 16.6196 39.3833 16.0997C39.6361 15.5798 39.7626 14.942 39.7626 14.1864Z" fill="black"/>
<path d="M48.5282 12.55C48.4344 12.2631 48.3109 12.006 48.1575 11.7787C48.0069 11.5486 47.8265 11.3526 47.6163 11.1906C47.4089 11.0287 47.1731 10.9051 46.9089 10.8199C46.6447 10.7347 46.3549 10.692 46.0396 10.692C45.5225 10.692 45.0523 10.8256 44.629 11.0926C44.2058 11.3597 43.8691 11.7531 43.6191 12.273C43.3691 12.7929 43.2441 13.4307 43.2441 14.1864C43.2441 14.942 43.3705 15.5798 43.6234 16.0997C43.8762 16.6196 44.2185 17.0131 44.6504 17.2801C45.0822 17.5472 45.568 17.6807 46.1077 17.6807C46.6077 17.6807 47.0481 17.5741 47.4288 17.3611C47.8123 17.1452 48.1106 16.8412 48.3237 16.4491C48.5396 16.0543 48.6475 15.5898 48.6475 15.0557L48.9714 15.1239H46.3464V14.1864H49.6702V15.1239C49.6702 15.8426 49.5168 16.4676 49.21 16.9989C48.906 17.5301 48.4856 17.942 47.9487 18.2347C47.4146 18.5244 46.8009 18.6693 46.1077 18.6693C45.335 18.6693 44.656 18.4875 44.0708 18.1239C43.4884 17.7602 43.0339 17.2432 42.7072 16.5727C42.3833 15.9023 42.2214 15.1068 42.2214 14.1864C42.2214 13.496 42.3137 12.8753 42.4984 12.3241C42.6859 11.7702 42.9501 11.2986 43.291 10.9094C43.6319 10.5202 44.0353 10.2219 44.5012 10.0145C44.9671 9.8071 45.4799 9.70341 46.0396 9.70341C46.4998 9.70341 46.9288 9.77301 47.3265 9.91222C47.7271 10.0486 48.0836 10.2432 48.3961 10.496C48.7114 10.746 48.9742 11.0457 49.1844 11.3952C49.3947 11.7418 49.5396 12.1267 49.6191 12.55H48.5282Z" fill="black"/>
<path d="M56.253 12.0045C56.2018 11.5727 55.9945 11.2375 55.6308 10.9989C55.2672 10.7602 54.8212 10.6409 54.2928 10.6409C53.9064 10.6409 53.5683 10.7034 53.2786 10.8284C52.9916 10.9534 52.7672 11.1253 52.6053 11.344C52.4462 11.5628 52.3666 11.8114 52.3666 12.0898C52.3666 12.3227 52.422 12.523 52.5328 12.6906C52.6465 12.8554 52.7913 12.9932 52.9675 13.104C53.1436 13.2119 53.3283 13.3014 53.5215 13.3724C53.7146 13.4406 53.8922 13.496 54.0541 13.5386L54.9405 13.7773C55.1678 13.8369 55.4206 13.9193 55.699 14.0244C55.9803 14.1295 56.2487 14.273 56.5044 14.4548C56.7629 14.6338 56.976 14.8639 57.1436 15.1452C57.3112 15.4264 57.395 15.7716 57.395 16.1807C57.395 16.6523 57.2715 17.0784 57.0243 17.4591C56.78 17.8398 56.422 18.1423 55.9504 18.3668C55.4817 18.5912 54.9121 18.7034 54.2416 18.7034C53.6166 18.7034 53.0754 18.6026 52.618 18.4009C52.1635 18.1991 51.8055 17.9179 51.5442 17.5571C51.2857 17.1963 51.1393 16.7773 51.1053 16.3H52.1962C52.2246 16.6295 52.3354 16.9023 52.5286 17.1182C52.7246 17.3313 52.9717 17.4903 53.27 17.5955C53.5712 17.6977 53.895 17.7489 54.2416 17.7489C54.645 17.7489 55.0072 17.6835 55.3283 17.5528C55.6493 17.4193 55.9036 17.2347 56.0911 16.9989C56.2786 16.7602 56.3723 16.4818 56.3723 16.1636C56.3723 15.8739 56.2913 15.6381 56.1294 15.4563C55.9675 15.2744 55.7544 15.1267 55.4902 15.0131C55.226 14.8994 54.9405 14.8 54.6337 14.7148L53.5598 14.408C52.878 14.2119 52.3382 13.9321 51.9405 13.5685C51.5428 13.2048 51.3439 12.729 51.3439 12.1409C51.3439 11.6523 51.476 11.2261 51.7402 10.8625C52.0072 10.496 52.3652 10.2119 52.8141 10.0102C53.2658 9.80568 53.77 9.70341 54.3268 9.70341C54.8893 9.70341 55.3893 9.80426 55.8268 10.006C56.2643 10.2048 56.6109 10.4776 56.8666 10.8241C57.1251 11.1707 57.2615 11.5642 57.2757 12.0045H56.253Z" fill="black"/>
<path d="M10.5 12.625C11.5333 11.0917 12.55 9.68333 13.55 8.4C14.5667 7.1 15.5333 5.98333 16.45 5.05C17.3667 4.11667 18.2083 3.39167 18.975 2.875C19.7417 2.35833 20.4083 2.1 20.975 2.1C21.1917 2.1 21.425 2.18333 21.675 2.35C21.9417 2.51667 22.1833 2.73333 22.4 3C22.6333 3.26667 22.825 3.55833 22.975 3.875C23.125 4.175 23.2 4.46667 23.2 4.75C22.1667 5.08333 21.15 5.525 20.15 6.075C19.1667 6.60833 18.2167 7.23333 17.3 7.95C16.4 8.65 15.5333 9.43333 14.7 10.3C13.8833 11.1667 13.1417 12.0917 12.475 13.075C12.7417 13.7583 13.0667 14.4917 13.45 15.275C13.85 16.0417 14.2833 16.7917 14.75 17.525C15.2167 18.2417 15.7167 18.9083 16.25 19.525C16.7833 20.1417 17.325 20.6333 17.875 21C17.7917 21.1833 17.65 21.3583 17.45 21.525C17.25 21.6917 17.0333 21.8417 16.8 21.975C16.5667 22.125 16.3167 22.2417 16.05 22.325C15.8 22.4083 15.5667 22.45 15.35 22.45C14.9167 22.45 14.5167 22.2417 14.15 21.825C13.7833 21.425 13.4083 20.8167 13.025 20C12.6583 19.1667 12.2667 18.1417 11.85 16.925C11.45 15.6917 11 14.2583 10.5 12.625ZM6.725 22.575C6.09167 22.425 5.56667 22.1583 5.15 21.775C4.73333 21.4083 4.35 20.9417 4 20.375C4.15 20.0583 4.325 19.6417 4.525 19.125C4.74167 18.6083 5 17.975 5.3 17.225C5.6 16.4583 5.95833 15.55 6.375 14.5C6.79167 13.4333 7.275 12.1917 7.825 10.775C8.175 9.875 8.45833 9.11667 8.675 8.5C8.90833 7.88333 9.1 7.28333 9.25 6.7C9.41667 6.1 9.575 5.44167 9.725 4.725C9.875 4.00833 10.05 3.1 10.25 2C10.95 2.13333 11.5833 2.44167 12.15 2.925C12.7333 3.40833 13.2333 3.99167 13.65 4.675C13.4667 4.90833 13.25 5.26667 13 5.75C12.7667 6.21667 12.5 6.78333 12.2 7.45C11.9 8.11667 11.5667 8.85833 11.2 9.675C10.8333 10.4917 10.45 11.3583 10.05 12.275C9.15 14.275 8.44167 16.1083 7.925 17.775C7.40833 19.425 7.00833 21.025 6.725 22.575Z" fill="black"/>
</svg>
